<svg width="33" height="34" viewBox="0 0 33 34" fill="none" xmlns="http://www.w3.org/2000/svg">
<path d="M11.1525 22.5094C11.0236 22.3766 10.9512 22.1965 10.9512 22.0086C10.9512 21.8208 11.0236 21.6407 11.1525 21.5078L15.5277 17L11.1525 12.4922C11.0272 12.3586 10.9579 12.1796 10.9595 11.9939C10.9611 11.8082 11.0334 11.6305 11.1608 11.4992C11.2883 11.3679 11.4607 11.2934 11.641 11.2918C11.8213 11.2902 11.9949 11.3616 12.1246 11.4906L16.4998 15.9984L20.8751 11.4906C21.0048 11.3616 21.1784 11.2902 21.3587 11.2918C21.5389 11.2934 21.7114 11.3679 21.8388 11.4992C21.9663 11.6305 22.0386 11.8082 22.0402 11.9939C22.0417 12.1796 21.9724 12.3586 21.8472 12.4922L17.472 17L21.8472 21.5078C21.9724 21.6414 22.0417 21.8204 22.0402 22.0061C22.0386 22.1918 21.9663 22.3695 21.8388 22.5008C21.7114 22.6321 21.5389 22.7066 21.3587 22.7082C21.1784 22.7098 21.0048 22.6384 20.8751 22.5094L16.4998 18.0016L12.1246 22.5094C11.9957 22.6422 11.8208 22.7168 11.6385 22.7168C11.4562 22.7168 11.2814 22.6422 11.1525 22.5094Z" fill="#9E9E9E"/>
<path fill-rule="evenodd" clip-rule="evenodd" d="M16.5 31.1666C24.0941 31.1666 30.25 24.8242 30.25 16.9999C30.25 9.17567 24.0941 2.83325 16.5 2.83325C8.90588 2.83325 2.75 9.17567 2.75 16.9999C2.75 24.8242 8.90588 31.1666 16.5 31.1666ZM16.5 29.7499C23.3344 29.7499 28.875 24.0415 28.875 16.9999C28.875 9.95838 23.3344 4.24992 16.5 4.24992C9.66556 4.24992 4.125 9.95838 4.125 16.9999C4.125 24.0415 9.66556 29.7499 16.5 29.7499Z" fill="#9E9E9E"/>
</svg>
