<svg width="32" height="32" viewBox="0 0 32 32" fill="none" xmlns="http://www.w3.org/2000/svg">
<path d="M4.3665 20.3946C3.23317 18.9226 2.6665 18.1853 2.6665 15.9999C2.6665 13.8133 3.23317 13.0786 4.3665 11.6053C6.62917 8.66659 10.4238 5.33325 15.9998 5.33325C21.5758 5.33325 25.3705 8.66659 27.6332 11.6053C28.7665 13.0799 29.3332 13.8146 29.3332 15.9999C29.3332 18.1866 28.7665 18.9213 27.6332 20.3946C25.3705 23.3333 21.5758 26.6666 15.9998 26.6666C10.4238 26.6666 6.62917 23.3333 4.3665 20.3946Z" stroke="#9E9E9E" stroke-width="1.5"/>
<path d="M20 16C20 17.0609 19.5786 18.0783 18.8284 18.8284C18.0783 19.5786 17.0609 20 16 20C14.9391 20 13.9217 19.5786 13.1716 18.8284C12.4214 18.0783 12 17.0609 12 16C12 14.9391 12.4214 13.9217 13.1716 13.1716C13.9217 12.4214 14.9391 12 16 12C17.0609 12 18.0783 12.4214 18.8284 13.1716C19.5786 13.9217 20 14.9391 20 16Z" stroke="#9E9E9E" stroke-width="1.5"/>
</svg>
