<svg width="65" height="65" viewBox="0 0 65 65" fill="none" xmlns="http://www.w3.org/2000/svg">
<path d="M32.3275 0.286865C14.6603 0.286865 0.286621 14.6605 0.286621 32.3278C0.286621 49.995 14.6603 64.3687 32.3275 64.3687C49.9948 64.3687 64.3685 49.995 64.3685 32.3278C64.3685 14.6605 49.9948 0.286865 32.3275 0.286865ZM32.3275 5.093C47.3974 5.093 59.5623 17.258 59.5623 32.3278C59.5623 47.3976 47.3974 59.5626 32.3275 59.5626C17.2577 59.5626 5.09276 47.3976 5.09276 32.3278C5.09276 17.258 17.2577 5.093 32.3275 5.093ZM32.29 16.2729C30.964 16.2936 29.9055 17.3844 29.9245 18.7104V29.9247H18.7101C17.8435 29.9125 17.0374 30.3678 16.6005 31.1163C16.1636 31.8649 16.1636 32.7907 16.6005 33.5392C17.0374 34.2878 17.8435 34.7431 18.7101 34.7309H29.9245V45.9452C29.9122 46.8118 30.3675 47.6179 31.1161 48.0548C31.8646 48.4917 32.7905 48.4917 33.539 48.0548C34.2875 47.6179 34.7429 46.8118 34.7306 45.9452V34.7309H45.9449C46.8116 34.7431 47.6177 34.2878 48.0546 33.5392C48.4914 32.7907 48.4914 31.8649 48.0546 31.1163C47.6177 30.3678 46.8116 29.9125 45.9449 29.9247H34.7306V18.7104C34.7399 18.0606 34.4857 17.4347 34.0259 16.9754C33.566 16.5162 32.9398 16.2628 32.29 16.2729Z" fill="#817676"/>
</svg>
